<svg width="100" height="100" viewBox="0 0 100 100" fill="none" xmlns="http://www.w3.org/2000/svg">
<rect width="100" height="100" fill="#1E293B"/>
<path d="M50 10C30.147 10 14 26.147 14 46C14 65.853 30.147 82 50 82C69.853 82 86 65.853 86 46C86 26.147 69.853 10 50 10ZM50 78C32.327 78 18 63.673 18 46C18 28.327 32.327 14 50 14C67.673 14 82 28.327 82 46C82 63.673 67.673 78 50 78Z" fill="#3B82F6"/>
<path d="M50 22C38.9543 22 30 30.9543 30 42C30 53.0457 38.9543 62 50 62C61.0457 62 70 53.0457 70 42C70 30.9543 61.0457 22 50 22ZM50 58C41.1634 58 34 50.8366 34 42C34 33.1634 41.1634 26 50 26C58.8366 26 66 33.1634 66 42C66 50.8366 58.8366 58 50 58Z" fill="#60A5FA"/>
<path d="M50 34C44.4772 34 40 38.4772 40 44C40 49.5228 44.4772 54 50 54C55.5228 54 60 49.5228 60 44C60 38.4772 55.5228 34 50 34ZM50 50C46.6863 50 44 47.3137 44 44C44 40.6863 46.6863 38 50 38C53.3137 38 56 40.6863 56 44C56 47.3137 53.3137 50 50 50Z" fill="#93C5FD"/>
<path d="M50 42C47.7909 42 46 43.7909 46 46C46 48.2091 47.7909 50 50 50C52.2091 50 54 48.2091 54 46C54 43.7909 52.2091 42 50 42Z" fill="#DBEAFE"/>
</svg>